<svg xmlns="http://www.w3.org/2000/svg" viewBox="0 0 39.75 39.74"><defs><style>.cls-1{fill:#fff;}</style></defs><g id="Layer_2" data-name="Layer 2"><g id="Layer_1-2" data-name="Layer 1"><path class="cls-1" d="M20.88,28.48h-3a.5.5,0,0,1-.5-.5V21.35H15.84a.5.5,0,0,1-.51-.5v-3a.5.5,0,0,1,.51-.5h1.51V14.79a3.54,3.54,0,0,1,3.53-3.53h3a.5.5,0,0,1,.5.51v3a.5.5,0,0,1-.5.51H21.39v2h2.52a.49.49,0,0,1,.38.17.53.53,0,0,1,.12.41l-.51,3a.51.51,0,0,1-.5.42h-2V28A.5.5,0,0,1,20.88,28.48Z"/><path class="cls-1" d="M19.87,39.74A19.87,19.87,0,1,1,39.75,19.87,19.89,19.89,0,0,1,19.87,39.74Zm0-38.8A18.93,18.93,0,1,0,38.8,19.87,18.95,18.95,0,0,0,19.87.94Z"/></g></g></svg>