<svg xmlns="http://www.w3.org/2000/svg" viewBox="0 0 39.75 39.74"><defs><style>.cls-1{fill:#fff;}</style></defs><g id="Layer_2" data-name="Layer 2"><g id="Layer_1-2" data-name="Layer 1"><path class="cls-1" d="M28.42,16.33a6.27,6.27,0,0,0-.4-2.08,4.21,4.21,0,0,0-1-1.53,4.39,4.39,0,0,0-1.52-1,6.34,6.34,0,0,0-2.09-.4c-.92,0-1.21-.05-3.54-.05s-2.63,0-3.55.05a6.27,6.27,0,0,0-2.08.4,4.21,4.21,0,0,0-1.53,1,4.39,4.39,0,0,0-1,1.52,6.34,6.34,0,0,0-.4,2.09c0,.92-.05,1.21-.05,3.54s0,2.63.05,3.55a6.27,6.27,0,0,0,.4,2.08A4.35,4.35,0,0,0,14.25,28a6.27,6.27,0,0,0,2.08.4c.92,0,1.21,0,3.54,0s2.63,0,3.55,0A6.27,6.27,0,0,0,25.5,28,4.4,4.4,0,0,0,28,25.5a6.6,6.6,0,0,0,.4-2.08c0-.92,0-1.21,0-3.55S28.46,17.25,28.42,16.33Zm-1.55,7a4.47,4.47,0,0,1-.29,1.59A2.86,2.86,0,0,1,25,26.58a5.13,5.13,0,0,1-1.6.29c-.91,0-1.18.05-3.47.05s-2.57,0-3.47-.05a5.06,5.06,0,0,1-1.6-.29A3,3,0,0,1,13.18,25a5.06,5.06,0,0,1-.29-1.6c0-.9-.05-1.18-.05-3.47s0-2.57.05-3.47a5.13,5.13,0,0,1,.29-1.6,2.59,2.59,0,0,1,.65-1,2.49,2.49,0,0,1,1-.64,4.64,4.64,0,0,1,1.59-.3c.91,0,1.18-.05,3.47-.05s2.57,0,3.47.05a4.72,4.72,0,0,1,1.6.3,2.56,2.56,0,0,1,1,.64,2.78,2.78,0,0,1,.64,1,4.59,4.59,0,0,1,.29,1.6c0,.91.05,1.18.05,3.47S26.91,22.44,26.87,23.35Z"/><path class="cls-1" d="M19.88,15.46a4.42,4.42,0,1,0,4.41,4.41A4.42,4.42,0,0,0,19.88,15.46Zm0,7.28a2.87,2.87,0,1,1,2.86-2.87A2.86,2.86,0,0,1,19.88,22.74Z"/><path class="cls-1" d="M25.5,15.28a1,1,0,1,1-1-1A1,1,0,0,1,25.5,15.28Z"/><path class="cls-1" d="M19.87,39.74A19.87,19.87,0,1,1,39.75,19.87,19.89,19.89,0,0,1,19.87,39.74Zm0-38.8A18.93,18.93,0,1,0,38.8,19.87,18.95,18.95,0,0,0,19.87.94Z"/></g></g></svg>