<svg xmlns="http://www.w3.org/2000/svg" viewBox="0 0 39.75 39.74"><defs><style>.cls-1{fill:#fff;}</style></defs><g id="Layer_2" data-name="Layer 2"><g id="Layer_1-2" data-name="Layer 1"><path class="cls-1" d="M19.87,39.74A19.87,19.87,0,1,1,39.75,19.87,19.89,19.89,0,0,1,19.87,39.74Zm0-38.8A18.93,18.93,0,1,0,38.8,19.87,18.95,18.95,0,0,0,19.87.94Z"/><g id="eN6GgK.tif"><path class="cls-1" d="M21.68,17.17v1.46a2.67,2.67,0,0,1,2-1.38,3.2,3.2,0,0,1,3.3.89,4.16,4.16,0,0,1,1,2.61c.06,2.06,0,4.11.07,6.17,0,0,0,.07,0,.14h-3.6V21.9a6.2,6.2,0,0,0-.07-1,1.12,1.12,0,0,0-.88-1.06,1.26,1.26,0,0,0-1.41.65,3.62,3.62,0,0,0-.33,1.37c0,1.56,0,3.13,0,4.7v.45H18.09V17.17Z"/><path class="cls-1" d="M12.67,17.16h3.56v9.89H12.67Z"/><path class="cls-1" d="M16.25,14.43a1.81,1.81,0,1,1-1.8-1.8A1.8,1.8,0,0,1,16.25,14.43Z"/></g></g></g></svg>