<svg viewBox="0 0 39.75 39.74" xmlns="http://www.w3.org/2000/svg"><g fill="#fff"><path d="m19.87 39.74a19.87 19.87 0 1 1 19.88-19.87 19.89 19.89 0 0 1 -19.88 19.87zm0-38.8a18.93 18.93 0 1 0 18.93 18.93 18.95 18.95 0 0 0 -18.93-18.93z"/><path d="m21.68 17.17v1.46a2.67 2.67 0 0 1 2-1.38 3.2 3.2 0 0 1 3.3.89 4.16 4.16 0 0 1 1 2.61c.06 2.06 0 4.11.07 6.17v.14h-3.6v-5.16a6.2 6.2 0 0 0 -.07-1 1.12 1.12 0 0 0 -.88-1.06 1.26 1.26 0 0 0 -1.41.65 3.62 3.62 0 0 0 -.33 1.37v4.7.45h-3.67v-9.84z"/><path d="m12.67 17.16h3.56v9.89h-3.56z"/><path d="m16.25 14.43a1.81 1.81 0 1 1 -1.8-1.8 1.8 1.8 0 0 1 1.8 1.8z"/></g></svg>